<svg xmlns="http://www.w3.org/2000/svg" width="410" height="404" viewBox="0 0 410 404" fill="none">
  <path
    d="M399.641 59.5246L215.643 388.545C211.844 395.338 201.305 395.378 197.458 388.618L10.5817 59.5563C6.38087 52.1896 12.6802 43.2665 21.0281 44.7586L205.223 77.6824C206.398 77.8924 207.601 77.8905 208.776 77.6769L389.119 44.8058C397.439 43.2894 403.768 52.1434 399.62 59.5308L399.641 59.5246Z"
    fill="url(#paint0_linear)"
  />
  <path
    d="M292.965 1.5744L156.801 28.2552C155.563 28.4984 154.587 29.4709 154.344 30.7074L128.73 162.027C128.198 164.752 130.719 167.035 133.364 166.427L176.58 156.611C179.444 155.956 182.172 158.337 181.744 161.253L171.464 231.531C171.017 234.606 174.046 237.137 177.039 236.103L203.92 226.942C206.913 225.908 209.942 228.438 209.495 231.513L195.629 326.829C194.893 331.676 201.486 334.369 204.167 330.088L206.437 326.364L322.925 74.2037C324.391 70.8847 321.546 67.1735 318.008 67.8716L273.292 76.7733C270.253 77.3812 267.654 74.4775 268.661 71.4998L298.511 7.21896C299.519 4.24128 296.92 1.33761 293.881 1.94549L292.965 1.5744Z"
    fill="url(#paint1_linear)"
  />
  <defs>
    <linearGradient id="paint0_linear" x1="6.00017" y1="32.9999" x2="235" y2="344" gradientUnits="userSpaceOnUse">
      <stop stop-color="#41D1FF" />
      <stop offset="1" stop-color="#BD34FE" />
    </linearGradient>
    <linearGradient id="paint1_linear" x1="194.651" y1="8.81818" x2="236.076" y2="292.989" gradientUnits="userSpaceOnUse">
      <stop stop-color="#FFEA83" />
      <stop offset="0.0833333" stop-color="#FFDD35" />
      <stop offset="1" stop-color="#FFA800" />
    </linearGradient>
  </defs>
</svg>
